<svg id="Layer_1" data-name="Layer 1" xmlns="http://www.w3.org/2000/svg" width="9.01in" height="2.97in" viewBox="0 0 648.92 214.07"><defs><style>.cls-1{fill:#fff;}</style></defs><title>logo</title><path class="cls-1" d="M0,0H17.79V84.5c0,23,12.79,41.88,37.43,41.88s37.43-18.9,37.43-41.88V0h17.79V89.69c0,30.39-23,53.37-55.59,53.37C23,143.05,0,120.07,0,89.69V0H0ZM143.41,0V140.83H126.73V0h16.68Zm25,20.94h16.68V44.29H200.5V58.93H185.12v70.5h10.21l0,11.4H168.44V58.93H155.1V44.29h13.34V20.94ZM379.31,81.72c0-16.68-9.64-24.09-21.12-24.09-13.9,0-24.27,8.71-24.27,24.83v58.37H317.23V81.72c0-16.68-9.64-24.09-21.12-24.09-13.9,0-24.27,8.71-24.27,24.83v47H282v11.38H255.16V44.29h16.68V55.78h0.37c4.45-9.82,16.49-13.71,26.68-13.71,9.82,0,20.57,2.6,28.54,16.68,5.93-12.23,18.71-16.68,31.5-16.68,20.75,0,37.06,12.42,37.06,37.8v49.58h10.19v11.38H379.31V81.72h0Zm100.43-5.56c0-15.93-15.94-19.46-28.91-19.46-9.08,0-17.6,2.23-26.68,6.67l-7.23-13.9c14.64-6.12,26.13-7.41,34.84-7.41,23.16,0,44.66,9.82,44.66,32.8v54.58h10.19v11.38H480.85V130.45c-8.52,8.89-18,12.6-30.76,12.6-23.53,0-42.06-13.16-42.06-34.65,0-17.6,15-33.17,41.88-33.17,10.19,0,20.94,3,29.83,10.93v-10h0ZM453.06,89.87c-20.38,0-27.24,9.82-27.24,19.27s6.86,19.27,27.24,19.27c16.56,0,26.48-9.78,26.47-9.35,0,0,0-8.16,0-9.93v-8.94a38.85,38.85,0,0,0-26.49-10.32" transform="translate(0 0)"/><path class="cls-1" d="M517.92,20.94h16.68V44.29H550V58.93H534.59v70.52h10.19v11.38H517.92V58.93H504.58V44.29h13.34V20.94ZM644.66,122.11c-13,14.45-26.68,20.94-43.55,20.94-34.28,0-52.62-24.83-52.62-50.59,0-27.42,19.64-50.4,49.85-50.4,29.83,0,50.59,22.79,50.59,56.89H566.28c2.6,16.49,15.94,28.54,34.65,28.54,11.86,0,22.42-5.56,30.95-15.57l12.78,10.19h0ZM630,85.24c-1.67-15.94-14.64-27.61-31.87-27.61-20.38,0-30.2,14.45-31.87,27.61H630Z" transform="translate(0 0)"/><path class="cls-1" d="M237.28,27.15A11.23,11.23,0,1,1,226,15.91a11.24,11.24,0,0,1,11.23,11.23m-2.66,102.3V97.12l7.87,0V51.54a7.23,7.23,0,0,0-7.2-7.37H217.14a7.37,7.37,0,0,0-7.38,7.38V97.11h7.4v43.71l17.43,0,0-11.36h0Z" transform="translate(0 0)"/><path class="cls-1" d="M137.91,183.09c-0.73-5-3.63-8.1-8.15-8.1-6,0-7.65,4-7.65,6.87,0,3.18,2,5.19,6.2,6.76l5.36,2c6.76,2.51,9.88,6.47,9.88,11.61,0,6.86-5.47,11.83-13.62,11.83-7.7,0-13.17-4.07-13.84-12.56h5.36c0.45,4.63,2.79,7.87,8.76,7.87,4.63,0,8-3,8-6.7,0-3.29-2.74-5.42-6.59-6.92l-5.42-2.12c-6.31-2.45-9.43-6.14-9.43-11.61,0-7.31,6.09-11.72,13.06-11.72s12.51,4.19,13.12,12.78h-5Zm50-12.78a21.89,21.89,0,1,1-22.5,21.89,21.92,21.92,0,0,1,22.5-21.89m0,38.74a16.86,16.86,0,1,0-16.8-16.86,16.75,16.75,0,0,0,16.8,16.86" transform="translate(0 0)"/><path class="cls-1" d="M234.19,171h21.94v5H239.55v13.45h16.58v5H239.55V213.4h-5.36V171Zm53.28,5H276.86v-5h26.57v5H292.83v37.4h-5.36V176Zm84.09-5h5.69L364.19,213.4h-4.13L349.84,179.8h-0.11L339.51,213.4h-4.13L322.32,171H328l9.49,32.21h0.11L347.27,171h5L362,203.3h0.11Zm50.88,32.55H402.68l-3.85,9.88H393L410.21,171h4.69l17.25,42.43h-5.86ZM412.56,178l-8,20.82H420.6Zm47,17.31V213.4h-5.36V171h12.23c8.15,0,14.24,4.69,14.24,12.84,0,7.59-6,12.28-12.9,12.67l16.52,16.91h-7.54l-17.19-18.09h0Zm0-3.29c0.72,0.06,1.51.06,4.69,0.06,8.2,0,11.05-3.58,11.05-8.21,0-5-3.4-8.21-9-8.21h-6.76V192h0Zm46.57-21H528.1v5H511.52v13.45H528.1v5H511.52v13.9H528.1v5H506.16V171Z" transform="translate(0 0)"/></svg>